<svg width="208" height="56" viewBox="0 0 208 56" fill="none" xmlns="http://www.w3.org/2000/svg">
<path d="M21.0393 8.12437C20.9026 8.43285 20.9108 8.75712 20.9307 9.09033C20.963 9.63995 20.9706 10.1909 20.9843 10.7419C20.9857 10.8024 20.9603 10.8628 20.9486 10.9171C20.634 11.2119 20.3433 10.9068 20.0088 10.8601C19.995 11.0786 19.982 11.2751 19.9689 11.4819C19.5478 11.723 19.1136 11.5801 18.6656 11.5121C18.7254 11.7807 18.915 11.8645 19.0888 11.9497C19.264 12.0349 19.4516 12.0919 19.635 12.1613C19.5972 12.3159 19.4949 12.2788 19.4124 12.2822C19.3217 12.2864 19.2256 12.2678 19.1411 12.2919C19.0579 12.3159 18.9872 12.3812 18.9198 12.4231C18.8195 12.724 18.9219 13.0915 18.5736 13.2894C18.2081 13.3849 17.8811 13.207 17.554 13.029C16.8499 12.6457 16.147 12.2589 15.4401 11.8824C15.2855 11.7999 15.1357 11.6694 14.909 11.7093C15.0183 12.1167 15.5775 12.287 15.7644 12.612C15.438 13.2812 15.1158 13.9524 14.7812 14.6167C14.7283 14.7225 14.6232 14.8015 14.5346 14.886C14.4934 14.9705 15.0258 14.9266 15.6242 14.7871C16.1944 14.6545 16.8107 14.616 17.3706 14.8812C18.1414 15.2454 18.8717 15.6775 19.5354 16.2278C19.6192 16.2972 19.7079 16.3604 19.7972 16.4229C19.8212 16.4401 19.8549 16.4428 19.8961 16.4559C19.9112 16.3906 19.8789 16.3123 19.9002 16.2237C20.1221 16.2903 20.3914 16.3611 20.6072 16.4373C21.7098 16.8289 22.8125 17.2226 23.9138 17.6238C24.0793 17.6843 24.2408 17.7557 24.3961 17.8389C25.0597 18.1934 25.7172 18.5609 26.3795 18.9196C26.499 18.9841 26.6254 19.059 26.7855 18.9539C26.6536 18.8021 26.5258 18.6544 26.3664 18.4696C26.7464 18.247 27.3901 17.8828 27.7363 17.696C28.6597 17.2645 35.3602 14.436 36.3303 14.0822C36.6999 13.9469 37.0887 13.8541 37.4103 13.569C37.7503 12.7934 38.098 11.9999 38.4394 11.2208C39.1676 10.9817 40.4634 10.7193 40.609 10.7763C40.9924 10.9274 41.9755 11.3458 42.5629 11.824C43.1043 11.846 43.4966 12.2438 43.9328 12.465C43.884 13.3272 43.4519 13.9929 43.1242 14.6992C42.4275 16.2024 41.7 17.6905 41.002 19.1937C40.6557 19.9377 40.3493 20.7031 40.025 21.4588C39.4665 22.7559 38.9196 24.0585 38.3419 25.3466C37.9221 26.281 37.4597 27.194 37.0187 28.1181C36.8716 28.4259 36.737 28.7405 36.5941 29.0504C36.2622 29.769 35.9339 30.489 35.5945 31.2042C35.1871 32.0602 34.8099 32.9286 34.4939 33.8272C34.2507 34.5177 33.9917 35.2027 33.7265 35.8849C33.5856 36.2469 33.4118 36.5953 33.2634 36.9546C33.1391 37.2555 33.0319 37.564 32.9158 37.8683C32.8601 38.014 32.801 38.1575 32.7433 38.3018C32.2617 39.5007 31.7808 40.7002 31.2944 41.8977C31.0773 42.4315 30.8485 42.9591 30.6321 43.4929C30.5215 43.765 30.4281 44.0446 30.2989 44.3984C30.1698 44.4788 26.4207 46.1854 26.2373 46.1854C26.2297 45.9642 38.8935 17.3868 38.9677 17.2343C39.0282 17.1092 39.0406 16.1254 39.0694 15.863C39.0234 15.9262 34.3358 26.1992 34.3303 26.213C34.1373 26.755 32.1601 31.4213 31.3604 33.2096C30.8458 34.359 28.7174 38.9263 28.1912 40.0723C27.847 40.8211 25.1545 46.7034 25.1202 46.7597C24.6771 46.7261 24.6613 46.7199 24.0862 46.3977C24.089 46.3757 25.7591 42.6946 25.2019 43.3762C25.1538 43.4346 23.7173 46.3833 23.7173 46.5653C23.6568 46.5955 25.259 47.1939 25.5317 47.2846C25.8271 47.1596 26.8728 46.6876 27.3612 46.421C27.7309 46.2191 28.7463 45.6536 28.8157 45.6481C28.7744 45.7581 28.5484 45.8989 28.5147 45.9896C28.6865 46.0762 28.8665 45.8872 28.9627 45.824C29.4525 45.5032 30.7008 45.4152 31.0004 45.2689C30.617 45.0023 30.2618 45.1549 29.8613 45.1026C30.1684 44.8471 30.4686 44.6121 30.6795 44.6712C30.8946 44.731 31.2649 44.981 31.4394 45.0381C31.8694 45.1782 32.2762 45.3974 32.7069 45.5348C33.1219 45.6674 33.4874 45.8755 33.8165 46.151C34.2101 46.4808 34.6794 46.5955 35.15 46.7144C35.2056 46.7288 35.2537 46.5475 35.1953 46.5282C34.8587 46.4176 34.5426 46.2699 34.25 46.0672C34.1765 46.0164 34.0384 45.9587 33.9704 45.8996C33.3383 45.3527 32.5469 45.2201 30.9901 44.3222C30.9447 44.3222 31.1811 42.9571 31.1845 42.9585C31.2656 42.9633 35.3925 45.4482 36.3014 45.8467C37.0331 46.1675 37.2694 46.6718 37.8438 47.2929C38.5823 48.2155 38.2718 48.4052 38.2223 49.0544C37.817 48.5687 37.4748 48.4003 37.0743 48.2272C36.9864 48.3406 37.2399 48.5604 37.3189 48.6051C37.5999 48.7645 38.3975 49.8768 38.2134 51.1684C37.907 53.3132 36.1832 54.6749 35.8143 54.8597C35.4454 55.0445 33.6578 55.2053 32.9543 55.1503C32.1855 55.0899 31.4119 55.2871 30.6417 55.3901C30.156 55.4554 29.6703 55.5289 29.1956 55.6519C28.3217 55.8793 27.4327 55.8381 26.5423 55.8051C26.0092 55.7851 25.4761 55.7535 24.9422 55.7274C24.2209 55.6924 23.4995 55.669 22.7788 55.6175C22.5006 55.5976 22.2237 55.5213 21.9489 55.4561C21.6892 55.3949 21.4343 55.3152 21.1499 55.2362C21.0785 55.3276 21.0599 55.498 20.9115 55.5392C20.4491 55.6677 20.0156 55.2012 19.4921 55.0033C19.5787 55.1531 19.6268 55.2369 19.6769 55.3235C18.7501 55.9315 17.9594 54.9662 17.5547 54.5334C17.3095 54.271 17.0051 54.0587 16.7097 53.8498C16.2192 53.5035 15.2271 52.5493 15.1069 52.5184C15.1886 52.6303 15.3206 53.16 17.0079 54.6584C17.2992 54.9167 17.8227 55.5337 17.4015 55.7645C16.8931 56.0428 16.2673 56.0194 15.6964 55.9686C15.3927 55.7226 14.2996 54.3981 14.0997 54.0965C13.6985 53.4905 13.3138 52.8749 13.0335 52.1996C12.8954 51.8657 12.7271 51.5435 12.5732 51.2158C12.5464 51.1587 12.521 51.1003 12.4997 51.0413C12.3595 50.6414 12.4468 50.3776 12.7978 50.1577C12.8755 50.109 12.9579 50.0458 13.0589 50.0396C13.197 50.032 13.3234 50.122 13.4807 50.1715C13.5604 49.9867 13.568 49.7558 13.7219 49.6102C13.8098 49.5271 13.95 49.5278 14.0544 49.49C14.1684 49.3285 14.2165 49.1114 14.391 49.0159C14.5057 48.9527 14.6418 49.0029 14.7277 48.9987C14.9386 49.132 14.9887 49.3196 15.0567 49.4955C15.2498 49.9963 15.4401 50.4978 15.6359 50.9973C15.7039 51.1711 15.7664 51.3539 15.9993 51.448C15.9402 50.9842 15.7183 50.594 15.6167 50.1708C15.5136 49.74 15.2402 49.2708 15.4215 48.8503C15.471 48.7356 15.5919 48.6559 15.6936 48.6326C15.9602 48.57 16.0893 48.8696 16.1972 49.0654C16.3683 49.3759 16.6252 49.6095 16.8801 49.8458C17.08 50.0313 17.3246 50.111 17.6049 50.1468C17.4963 50.019 17.3163 49.929 17.2682 49.7497C17.2497 49.6803 17.26 49.525 17.3239 49.481C17.5953 49.2969 17.9924 49.5676 18.2404 49.7043C19.2132 50.2429 19.9208 51.1553 21.0578 51.3841C20.4643 50.8867 19.7243 50.6077 19.0751 50.0162C19.4269 50.0829 19.668 50.1983 19.881 50.335C20.4746 50.7163 21.1307 50.9183 21.793 51.1161C22.0636 51.1972 22.3254 51.3099 22.5975 51.3834C23.0969 51.5187 23.5991 51.6431 24.1034 51.7544C24.2367 51.7839 24.3858 51.7633 24.5225 51.7407C25.1456 51.6376 25.7742 51.6204 26.407 51.6568C26.6474 51.6706 28.1417 51.6348 29.1846 51.9124C29.6153 52.0271 30.0592 52.0842 30.5043 52.1178C30.9392 52.1501 31.3727 52.2271 31.8069 52.2827C31.8832 52.2923 31.9601 52.2978 32.1181 52.3136C31.8447 52.0422 28.5195 51.2934 28.1465 51.1759C26.4015 50.6236 24.4806 50.7438 24.2016 50.7053C23.74 50.6421 19.4207 49.6452 19.1328 49.4858C18.5983 49.1904 17.9827 49.2048 17.3802 48.974C17.1095 48.8703 16.8272 48.6607 16.5283 48.4897C16.1347 48.2643 15.6991 48.1846 15.2656 48.1984C15.0135 48.2066 14.7139 48.4903 14.479 48.601C13.8751 48.8847 13.4003 49.3189 12.7916 49.5937C12.1129 49.9001 12.0703 49.9874 11.1613 50.0327C11.0404 50.0245 10.3946 49.9386 10.1617 49.8053C9.52555 49.4419 9.66914 49.097 9.14632 48.7775C8.43457 48.4952 7.79907 48.6683 7.20343 48.8421C6.77816 48.7329 6.46007 48.5913 6.22099 48.2822C6.01489 48.0149 5.7868 47.7655 5.5168 47.5629C5.26672 47.3753 5.04962 47.1383 4.83802 46.9054C4.68001 46.7316 4.55566 46.5275 4.41276 46.34C4.04589 45.8577 3.90437 45.3005 3.87345 44.7097C3.83223 43.9189 3.92223 43.1405 4.12352 42.3779C4.18604 42.1416 4.17574 41.919 4.11047 41.684C3.66253 40.9661 3.87482 39.9122 4.00192 39.6882C4.41001 38.9723 4.45535 38.455 5.51199 38.2049C5.5326 38.4502 5.25367 39.2726 5.18222 39.4464C5.11146 39.6188 5.11627 39.7947 5.04344 39.9843C4.84902 40.0331 4.75146 40.2495 4.71986 40.3052C4.85863 40.5573 5.84107 40.6315 6.16259 40.8328C6.40923 40.9867 6.59198 41.1921 6.65862 41.4518C6.64488 41.7033 6.34053 41.8626 6.55007 42.1519C6.84755 41.9465 7.12511 41.7246 7.43083 41.5521C7.73862 41.3783 8.08625 41.2959 8.4696 41.2835C8.24289 41.5281 8.00106 41.761 7.79289 42.0207C7.58129 42.2838 7.3422 42.5318 7.19518 42.8403C7.30785 42.9557 7.35801 42.8458 7.4116 42.8094C7.45076 42.7826 7.48992 42.7565 7.52289 42.7221C8.38098 41.8269 9.46028 41.2807 10.5471 40.76C13.0403 39.7253 14.5298 39.8249 15.4648 39.8476C18.3489 39.9191 18.9652 40.3959 19.4695 40.49C19.602 40.5147 19.7429 40.4948 19.859 40.4948C19.9662 40.345 19.8968 40.2571 19.8054 40.1877C19.5938 40.0276 19.376 39.8751 19.1699 39.726C19.3451 39.4574 19.5409 39.2135 19.6728 38.9373C19.8061 38.6591 19.8762 38.3492 19.9902 38.003C20.004 37.7714 19.9559 37.3647 19.8116 37.0631C20.1098 37.1614 20.4615 37.4863 20.5233 37.6993C20.7253 38.0744 20.8002 38.4207 21.0249 38.8185C21.2811 39.2705 21.4075 39.7576 21.402 40.2784C21.4007 40.3856 21.4137 40.7249 21.1808 40.852C20.8105 41.1007 20.4354 41.2766 19.9978 41.4003C19.6117 41.5095 19.2441 41.7239 18.8594 41.8386C18.7556 41.8695 17.655 42.0152 17.0079 42.292C16.5572 42.4851 15.449 42.6376 15.6318 42.854C15.7266 42.8478 16.2975 42.7991 17.6372 42.4535C18.2892 42.2852 18.9226 42.1292 19.5505 41.9128C19.9133 41.7884 20.2987 41.7239 20.6786 41.6572C20.983 41.6036 21.2935 41.5878 21.6281 41.5528C21.7744 41.2828 21.964 41.0334 22.0575 40.7284C22.1049 40.5738 22.1564 40.1107 22.1784 39.8998C22.842 40.1705 23.5023 40.3594 24.0175 40.8527C23.9997 40.9785 23.9426 41.0808 23.6239 41.1186C23.8293 41.2155 25.2686 41.0272 26.1432 41.2725C26.1933 41.1852 26.2833 41.0341 26.3156 40.9647C27.7302 37.8965 29.1145 35.1333 30.3889 32.0011C31.394 29.5196 32.463 27.0676 33.5004 24.6026C33.6028 24.3594 33.7223 24.1237 33.8309 23.8826C33.8597 23.8187 33.8762 23.75 33.9106 23.649C33.8233 23.6634 33.5238 23.7892 33.42 23.8531C32.8086 24.2316 29.9101 25.8811 26.9566 27.9113C24.5348 29.5759 21.413 30.6498 21.3656 30.6594C21.0544 30.6841 20.636 30.4863 20.3248 30.243C19.8453 29.8686 19.3156 29.5608 18.801 29.2352C17.914 28.6732 16.6925 27.9594 15.8763 27.3019C15.3899 26.9096 14.8925 26.5318 14.391 26.1608C14.1828 26.0062 13.9486 25.8921 13.6621 25.8942C13.8606 26.0852 14.1609 26.3916 14.3958 26.6176C14.369 26.7406 14.2522 26.7537 13.6525 26.9076C14.5099 27.2236 14.727 26.9447 14.797 27.0044C17.6296 29.398 18.9267 29.87 19.0696 30.0294C19.0696 30.0335 18.9246 31.2193 18.7893 31.7387C18.5241 32.7534 18.8786 33.3999 19.1603 34.3975C19.3616 35.1099 19.5237 35.9728 19.5842 36.609C19.6604 36.8975 19.6556 37.2266 19.6598 37.5633C19.6673 38.1788 19.2194 39.1695 18.7598 39.5508C18.6876 39.5199 17.4283 39.2121 16.8485 39.1894C15.2484 39.1269 13.2547 39.2636 11.0913 39.9699C10.8206 40.0338 9.80517 40.4096 9.49807 40.5346C8.81655 40.5298 8.07938 40.6741 7.41022 41.0046C7.14022 40.8252 6.90458 40.5759 6.64694 40.4371C6.40168 40.3052 5.71466 40.3766 5.43298 40.2605C5.68649 37.2198 7.37724 33.4164 7.37724 32.8606C7.37724 32.1069 5.45909 24.0248 5.2997 21.7205C5.17878 19.9728 5.82939 17.3105 6.48206 16.6455C6.93687 16.1818 8.91136 14.4518 9.23906 14.256C10.1617 13.7023 12.0483 10.2727 12.0483 10.2727C12.2269 10.1834 12.7106 9.88178 12.9483 9.43659C12.9613 9.41185 14.4549 8.82445 14.7998 8.86361C14.8568 8.96323 14.8905 9.14048 15.0643 9.34659C15.1777 9.48124 15.3879 9.48262 15.5115 9.35689C15.5143 9.35414 15.515 9.35277 15.5157 9.35277C15.5177 9.34727 15.3047 9.23529 15.1928 9.05529C15.1378 8.96666 15.1344 8.83063 15.1289 8.70766C15.1055 8.13743 14.977 8.1072 15.1378 7.56514C15.1749 7.43873 15.5019 6.39239 16.2528 6.69537C16.8361 6.93033 16.8464 7.4827 16.764 8.2927C17.0553 8.28789 19.0284 6.80598 19.4537 6.51812C19.7793 6.53804 21.0475 6.773 21.5326 6.50781C21.5752 6.77025 21.613 6.99903 21.6528 7.24361C21.4948 7.57476 21.3203 7.90109 21.0338 8.14292C21.0386 8.03644 21.0503 7.86056 21.0544 7.76575C20.5275 7.31781 20.0253 7.29102 19.4166 7.5459C19.5052 7.5727 19.5567 7.59743 19.6096 7.60293C20.0672 7.64964 20.5096 7.73552 20.873 8.06873C20.9136 8.10583 20.9857 8.10514 21.0427 8.12163L21.0393 8.12437ZM10.8687 23.8029C10.868 23.8139 10.8673 23.8256 10.8666 23.8366C10.8707 23.829 10.8755 23.8215 10.8797 23.8139C10.6413 23.57 10.42 23.3048 10.161 23.0877C9.78112 22.7703 9.37372 22.4886 8.97937 22.1891C8.71075 21.9857 8.44487 21.7782 8.15838 21.5577C8.02716 21.667 7.96602 21.691 7.96052 21.9047C8.10823 22.0221 8.26418 22.1451 8.42426 22.2729C8.47647 22.5051 8.55479 22.6384 8.61594 22.8631C8.63655 22.94 8.94021 22.6267 9.06387 22.7002C9.48845 22.9517 10.2297 23.4862 10.6578 23.7301C10.7217 23.7665 10.7979 23.7795 10.868 23.8029H10.8687ZM37.7867 15.2673C37.7057 15.3147 37.6157 15.345 37.5483 15.4061C36.3639 16.4738 34.7281 17.5221 33.9944 18.0017C33.4324 17.9034 32.641 17.5201 32.1017 17.4541C31.8296 17.7337 31.787 18.0347 31.8942 18.3857C32.0872 18.4764 32.7928 18.6654 33.012 18.7684C32.8739 18.8776 29.9039 21.8257 27.6993 22.6295C27.3475 22.613 26.9951 22.5917 26.646 22.5457C25.6396 22.4131 24.7918 22.3622 23.8135 22.0613C23.3896 21.9308 20.8593 21.5254 20.0562 21.4423C19.8336 21.1943 19.5629 20.6639 19.3039 20.3939C19.0469 20.126 19.0318 19.7028 18.7192 19.4225C18.6966 19.509 18.6753 19.5489 18.6766 19.5887C18.6883 19.957 18.7838 20.2984 18.9769 20.6165C19.2455 21.0596 19.5904 21.4966 19.8824 21.9253C20.1455 22.3128 20.3303 22.6109 20.4052 23.0163C20.4354 23.1805 20.4265 24.0667 20.2616 24.2357C20.1599 24.1375 19.7814 23.546 19.6859 23.4477C19.3582 23.1111 19.0456 22.7586 18.7034 22.4392C18.3036 22.0661 17.8879 21.7089 17.4606 21.3695C17.1453 21.118 17.0175 20.6989 16.8629 20.3273C16.8128 20.2057 16.7317 20.0978 16.6602 19.9762C16.4191 20.1692 16.7083 20.3788 16.595 20.5457C15.8805 20.2723 15.3151 19.8044 14.8513 19.1916C14.5875 18.8426 14.2983 18.5128 14.0193 18.1762C13.9802 18.1288 13.9348 18.0814 13.8833 18.0498C13.2787 17.6781 12.7367 17.1931 12.0558 16.9602C12.0009 16.9409 11.9411 16.9361 11.8834 16.9251C12.7916 17.5063 13.1915 17.8272 13.3337 18.0058C13.7033 18.4702 14.11 19.0212 14.4302 19.5221C14.6273 19.8299 14.8335 20.115 15.1035 20.3479C15.1804 20.3767 16.2528 20.995 16.6932 21.3138C17.1597 21.6505 18.9487 23.2079 19.3692 23.6511C19.8652 24.1732 20.3234 24.6699 20.8442 25.2319C21.3718 25.8104 21.7133 26.3854 21.8239 26.3057C21.762 26.1189 21.6981 25.9285 21.6308 25.7252C21.9276 25.4792 24.2257 24.7585 24.811 24.5847C25.1628 24.4803 27.5873 23.7479 28.4721 23.5521C29.9039 23.3041 32.8265 21.9157 33.0415 21.8277C33.0099 22.1891 33.003 22.433 33.0504 22.5388C33.2771 22.1843 33.3555 21.8311 33.4572 21.4938C33.6275 20.9284 33.7663 20.3541 33.9882 19.8044C34.1504 19.4025 34.3743 19.0659 34.691 18.7904C35.1184 18.4194 35.5505 18.0539 35.9771 17.6891C36.322 17.6403 36.6518 17.5929 36.9905 17.5448C37.0242 17.496 37.0647 17.4493 37.0915 17.3957C37.4625 16.6654 37.8657 15.9496 38.1914 15.1973C38.5431 14.3852 39.6108 12.2053 39.674 12.1476C40.1061 12.2898 40.5692 12.5825 40.9086 12.814C40.901 12.8215 40.1892 14.3667 40.2257 14.3818C40.3582 14.4388 40.5355 14.4986 40.6358 14.5109C41.0453 14.5611 41.4664 14.3969 41.757 14.208C42.2345 13.8974 42.4021 13.5697 42.7051 13.1864C42.8789 12.9658 43.0754 12.8367 43.3447 12.7838C43.4327 12.8298 43.524 12.8772 43.6312 12.9328C43.6717 12.8511 43.704 12.7858 43.7398 12.713C43.4011 12.5193 43.072 12.4423 42.7463 12.5014C42.5856 12.7789 42.6323 12.8112 42.499 13.0716C42.2421 13.5725 41.5372 13.9881 41.0803 14.1138C40.9773 14.142 40.879 14.1111 40.8859 14.0259C40.9223 13.5587 41.4238 13.4124 41.6883 12.9308C41.7062 12.8106 41.4994 12.4959 41.4994 12.4808C41.3785 12.4038 40.5884 12.0177 40.1226 11.8089C39.9014 11.7093 39.507 11.6179 39.3978 11.7766C38.866 12.9253 38.3364 14.0754 37.7854 15.268L37.7867 15.2673ZM16.3531 43.482C16.4995 43.6633 16.6183 43.6056 16.7344 43.574C17.0484 43.4902 17.3596 43.3975 17.677 43.3274C18.6134 43.1199 19.5629 42.955 20.445 42.5641C20.6436 42.4762 20.8387 42.4837 21.0379 42.5167C21.2983 42.56 21.5566 42.6218 21.8149 42.6775C22.5164 42.8279 23.2185 42.9715 23.9364 42.9901C24.0477 42.9928 24.1707 43.0168 24.2958 42.9262C24.2284 42.8726 24.1975 42.8279 24.1597 42.821C23.3497 42.661 22.5425 42.4844 21.7284 42.3559C21.1259 42.2604 20.5206 42.2474 19.9538 42.5449C19.7944 42.6287 19.6007 42.6555 19.4186 42.6864C18.8085 42.7908 18.1964 42.8836 17.5857 42.9852C17.2332 43.0436 16.4665 43.2786 16.3525 43.4826L16.3531 43.482ZM12.4804 35.2322C12.5086 35.1353 12.5553 35.0405 12.5622 34.9416C12.5931 34.4888 12.624 34.0361 12.6343 33.582C12.6453 33.112 12.635 32.6421 12.6281 32.1722C12.6261 32.019 12.6206 31.8562 12.4426 31.7895C12.2297 31.8541 12.2613 32.0279 12.2551 32.177C12.2145 33.1959 12.3128 34.2099 12.4811 35.2329L12.4804 35.2322ZM36.0623 19.5695C35.5464 19.9308 34.9961 21.0686 34.9569 21.1689C34.8724 21.3839 34.724 21.5866 34.711 21.8181C34.6993 22.0242 34.8655 22.0847 34.9652 22.0331C35.3128 21.2822 36.0293 19.7 36.0623 19.5695ZM15.3996 7.64002C15.3576 7.99384 15.3893 8.17178 15.3893 8.3559C15.3893 8.61697 15.4813 7.40438 15.8908 7.26148C16.2989 7.11858 16.1972 7.37827 16.4019 7.36384C16.3813 7.29239 16.2803 7.01896 16.0948 6.98529C15.7046 6.91384 15.4504 7.21064 15.3996 7.64002ZM20.4952 8.71659C20.0163 8.6788 19.7182 8.41636 19.3925 8.09621C19.3733 8.23705 19.3437 8.31193 19.3582 8.3772C19.4152 8.63002 19.5601 8.83544 19.7587 8.98659C19.9572 9.13773 20.1736 9.26277 20.4175 9.42147C20.4436 9.1872 20.4663 8.97697 20.4952 8.71659ZM17.3012 35.0948C17.3335 34.4428 17.361 33.9007 17.3864 33.358C17.3878 33.3278 17.3789 33.2969 17.3706 33.2666C17.3679 33.2556 17.3555 33.2426 17.3445 33.2385C17.3308 33.2337 17.3143 33.2371 17.2909 33.2371C17.2689 33.2714 17.238 33.3065 17.2215 33.3477C17.1013 33.6479 16.9124 34.0512 16.7928 34.3549C16.8911 34.6235 17.0656 34.7767 17.2999 35.0948H17.3012ZM12.0407 37.0185C11.7446 37.408 11.6161 37.7659 11.5426 38.1452C11.5303 38.2097 11.6058 38.2922 11.645 38.376C11.9555 38.106 12.0641 37.7453 12.04 37.0185H12.0407Z" fill="white"></path>
<path d="M0.777157 51.4479C0.858914 51.4033 0.953037 51.3785 1.0293 51.327C1.9513 50.7087 3.28895 50.449 4.36759 50.4565C4.60118 50.4586 4.83477 50.4648 5.06836 50.4709C5.07935 50.4709 5.08966 50.4881 5.1192 50.5135C5.05943 50.7251 4.81554 50.8509 4.77981 51.1147C4.84851 51.1065 4.8966 51.114 4.92889 51.0941C5.71074 50.6097 5.75402 50.3095 6.53106 49.8183C6.80656 49.6438 7.0848 49.4686 7.33901 49.2645C7.76291 48.9244 8.19574 48.8605 8.68284 49.1312C8.91575 49.2604 9.1775 49.3415 9.31285 49.6369C9.22903 49.9811 9.04285 50.271 8.722 50.4696C7.96558 50.9374 7.96214 51.3029 8.78796 50.7959C9.18781 50.5506 9.5327 50.0938 9.6014 50.0099C9.73263 50.1013 10.0631 50.383 10.1936 50.4648C10.5268 50.6736 10.724 50.9038 11.7999 50.8873C12.1922 51.6788 12.3805 52.5231 12.6711 53.3579C12.4794 53.4479 11.2359 53.3819 10.7824 53.3908C10.5832 53.395 10.375 53.4293 10.1902 53.4994C9.27506 53.847 8.31803 53.9858 7.34862 54.0586C6.50563 54.1219 3.7898 54.1583 3.05948 53.9831C2.61085 53.8752 2.16771 54.0449 1.74244 54.205C1.49511 54.2984 1.24503 54.385 0.993572 54.4674C0.920747 54.4915 0.83899 54.5025 0.762729 54.499C0.375243 54.4812 0.165698 54.1418 0.353258 53.8017C0.456313 53.6148 0.608834 53.4486 0.76479 53.2995C0.886395 53.1827 1.199 52.9958 1.44839 52.9848C1.3632 52.9079 1.32197 52.8453 1.27251 52.8316C0.999755 52.7567 0.815631 52.9408 0.510588 53.1415C0.397915 53.2418 0.285929 53.3428 0.121041 53.4912C0.102491 52.9099 0.368373 53.0343 0.470053 52.8089C0.380052 52.8089 0.295547 52.9209 0.230966 52.8536C0.191805 52.8124 0.195241 52.7024 0.208294 52.6756C0.333334 52.4146 0.259135 52.1033 0.503718 51.9295C0.446008 51.834 0.446007 51.6499 0.777844 51.4479H0.777157Z" fill="white"></path>
<path d="M19.5495 5.48463C19.5117 5.58288 19.4849 5.98479 19.0837 6.32556C18.9793 6.41419 17.2109 8.09056 17.0865 7.09298C17.0096 6.47946 16.3809 6.26441 16.0889 6.27953C15.9921 6.28434 15.2858 6.2438 14.8461 7.24619C14.7108 7.55536 14.7286 7.78345 14.6469 8.33583C14.2477 8.39697 13.3333 8.80026 13.0447 8.97752C13.0536 8.41346 13.0014 7.90918 12.651 7.42138C12.6235 7.53406 12.7026 7.90506 12.7026 8.19292C12.7026 8.7137 12.5816 9.57181 11.5854 10.274C11.2069 10.5412 10.5549 10.6058 10.1269 10.3262C9.26396 9.76143 9.17465 9.11355 9.14304 9.09019C9.1348 9.09844 9.17258 9.28737 8.98502 9.37943C8.5199 9.60822 8.23753 9.37531 8.04516 8.90882C7.88508 8.52064 7.86516 8.11117 7.92356 7.70376C7.94417 7.55948 8.02524 7.40215 8.12486 7.29703C8.34608 7.06275 8.5941 6.85527 8.83525 6.64228C8.92388 6.56396 9.0235 6.49869 9.19113 6.37228C8.79952 6.34961 8.44639 6.85527 8.29181 6.64778C8.07814 6.36129 8.12761 5.99441 8.18188 5.65501C8.23684 5.31562 8.40723 5.0408 8.66624 4.8292C8.86548 4.66706 9.09495 4.59629 9.34915 4.65606C9.79778 4.76118 10.2251 4.91027 10.5748 5.24829C10.6902 5.35959 10.8002 5.50249 11.0097 5.55402C11.0234 5.32936 10.728 5.31768 10.5047 4.7763C10.6676 4.65126 11.0681 4.63408 11.2055 4.63614C11.2433 5.17752 11.7393 5.68524 12.3831 5.65845C12.4099 5.43104 12.3034 4.86286 11.9592 4.564C12.3343 4.55232 12.4442 4.55988 12.671 4.60591C12.8984 5.50318 13.7249 6.12289 14.6098 5.78006C14.6324 5.3486 13.9207 4.71378 13.9165 4.62652C14.2278 4.57705 14.5466 4.58393 14.8234 4.53927C14.9485 4.70416 15.0879 5.17065 15.6245 5.42761C16.2174 5.71135 16.9134 5.52379 17.149 5.25722C17.0467 5.04699 16.5238 4.58667 16.2518 4.4053C16.6042 4.35446 16.945 4.30293 17.1978 4.28163C18.0813 5.2902 18.8419 5.12119 19.5124 4.59835C19.3194 4.45064 18.7058 4.0872 18.3589 3.96216C18.6784 3.79933 18.9449 3.67017 19.3716 3.57055C19.7639 3.89758 20.3396 4.13392 20.8466 3.99101C21.1874 3.87147 21.3406 3.78078 21.5522 3.41459C21.5344 3.38299 21.3351 3.26825 20.6653 3.07039C21.0514 2.9055 21.3908 2.96389 21.68 3.10955C22.0125 3.2765 21.9438 3.74093 22.1396 4.02193C22.3361 4.3043 22.5086 4.60454 22.7016 4.9137L22.7229 6.2809C22.4852 6.73435 22.2125 6.8484 22.0551 6.87519C21.8779 6.54541 21.8332 6.18266 21.8023 6.19365C21.4134 6.21632 21.0919 6.39014 20.5251 6.25754C20.1843 6.17785 19.9343 5.8941 19.5481 5.48463H19.5495Z" fill="white"></path>
<path d="M20.5663 2.90506C20.1974 3.18743 19.735 3.26438 19.2486 3.39354C19.3331 3.20942 19.4155 2.91399 19.4636 2.77934C19.5152 2.63506 19.5468 2.48322 19.5955 2.30459C19.1923 2.24001 18.7058 2.47223 18.431 2.85903C18.2215 3.17163 18.0758 3.87928 18.0676 3.88752C17.8945 3.93012 17.5035 4.05241 17.2225 4.12249C17.6148 3.66355 17.869 3.14896 17.8203 2.6062C17.2583 2.56429 16.4228 2.98132 16.1418 3.63263C16.0937 3.74462 15.9543 4.24616 15.9543 4.24616C15.6589 4.30868 15.3236 4.32585 14.932 4.35952C15.2164 3.95073 15.2672 3.40591 15.3071 2.96209C14.4325 2.97377 14.0004 3.48492 13.7276 4.43921C13.5112 4.45227 13.2845 4.48456 12.9966 4.46944C13.235 4.13211 13.573 3.49042 13.5455 3.07545C13.0206 2.98201 12.5438 3.19224 12.2958 3.64363C12.1996 3.81882 12.133 4.20425 12.0877 4.38219C11.8891 4.39937 11.6864 4.37807 11.4666 4.37051C11.5538 4.24203 11.7929 3.66492 11.7964 3.38118C11.4817 3.28362 11.2983 3.36606 11.1292 3.47668C10.6902 3.7721 10.6181 4.26814 10.5762 4.4612C10.3941 4.45708 10.4106 4.33272 10.414 4.27158C10.4669 3.3324 10.7576 2.51277 11.5545 1.98581C11.9736 1.70893 12.4195 1.47603 12.8585 1.23419C13.2446 1.0219 13.6369 0.820596 14.0299 0.622042C14.798 0.233867 15.6046 -0.00934331 16.4689 0.000275188C16.6633 0.0023363 16.8612 0.0373749 17.0522 0.0827193C17.5688 0.207073 18.0827 0.346541 18.5987 0.477765C19.1909 0.628226 19.7062 0.909224 20.0882 1.4245C20.172 1.53717 20.2757 1.63336 20.3643 1.74191C20.5972 2.02634 20.7182 2.49765 20.567 2.90506H20.5663Z" fill="white"></path>
<path d="M0.00078566 50.8878C-0.0108939 50.6858 0.109337 50.602 0.248804 50.5704C0.681635 50.4722 1.05607 50.2544 1.43668 50.04C1.98837 49.7295 2.60327 49.6202 3.22159 49.5337C4.25077 49.5069 4.9165 48.7772 5.3143 48.7017C5.8069 48.578 6.03293 48.6955 6.27408 49.195C6.06728 49.4842 6.03087 50.0009 5.00307 49.9102C4.25214 49.9129 3.18862 50.1479 2.448 50.2338C1.90593 50.297 1.47722 50.4543 1.02378 50.7944C0.853393 50.9222 0.619801 51.0355 0.417814 51.1125C0.256361 51.1743 0.0763592 51.0369 0.00078566 50.8871V50.8878Z" fill="white"></path>
<path d="M10.8775 23.81C10.8733 23.8176 10.8684 23.8253 10.8643 23.833C10.865 23.8218 10.8657 23.81 10.8663 23.7988L10.8775 23.81Z" fill="white"></path>
<path d="M32.1178 18.081L32.1123 17.8295C32.1618 17.811 32.2078 17.7732 32.2421 17.7828C33.0377 17.9978 33.8319 18.2177 34.6446 18.4416C34.5848 18.6732 34.4186 18.7398 34.2214 18.8408C33.5461 18.5969 32.8426 18.3434 32.1178 18.0816V18.081Z" fill="white"></path>
<path d="M13.0661 4.90234C13.0661 4.90234 13.1568 5.22043 13.4522 5.42515C13.7476 5.62988 13.861 5.58454 13.861 5.58454L13.0654 4.90303L13.0661 4.90234Z" fill="white"></path>
<path d="M16.5986 4.01982L17.4849 3.15625C17.4849 3.15625 17.3729 3.68456 17.1022 3.87005C16.9339 3.98547 16.5986 4.01982 16.5986 4.01982Z" fill="white"></path>
<path d="M11.3253 3.67188C11.3253 3.67188 11.0615 3.74058 10.9488 3.94805C10.8361 4.15484 10.7764 4.3843 10.7764 4.3843L11.0182 4.34651C11.0182 4.34651 11.0807 4.10469 11.1563 3.95423C11.2318 3.80378 11.326 3.67188 11.326 3.67188H11.3253Z" fill="white"></path>
<path d="M19.9375 3.6587C19.9375 3.6587 20.4541 3.89159 20.8182 3.75557C21.1817 3.61954 21.159 3.5 21.159 3.5C21.159 3.5 20.5057 3.81808 19.9375 3.65939V3.6587Z" fill="white"></path>
<path d="M15.3737 4.90694C15.3737 4.90694 15.494 5.06151 15.5475 5.12609C15.7358 5.35418 16.0813 5.29647 16.0813 5.29647C16.0813 5.29647 16.0092 5.08418 15.6231 4.9619C15.562 4.94266 15.373 4.90625 15.373 4.90625L15.3737 4.90694Z" fill="white"></path>
<path d="M51.7594 31.4492L51.7377 31.2759C52.4526 30.9726 52.8208 30.5177 53.1458 29.7162L57.7816 18.3001C58.1715 17.3469 57.8032 16.8053 57.0234 16.5021L57.045 16.2854H59.7745L65.1685 29.7162C65.4934 30.5177 65.8834 30.9726 66.5766 31.2759L66.5549 31.4492H62.8723L62.8506 31.2759C63.7171 30.951 63.9121 30.5177 63.5871 29.7162L62.569 27.1817H55.6803L54.6838 29.6946C54.3806 30.5177 54.5539 30.951 55.4204 31.2759L55.3987 31.4492H51.7594ZM56.2435 25.752H62.0058L59.1246 18.5383L56.2435 25.752ZM68.0352 31.4492L68.0136 31.2759C68.7934 30.9726 69.075 30.4961 69.075 29.6296V18.1051C69.075 17.2386 68.7934 16.762 68.0136 16.4587L68.0352 16.2854H75.0322C77.5884 16.2854 79.5597 18.1701 79.5597 20.5746C79.5597 22.6759 78.0867 24.3872 76.0287 24.7988L78.6066 28.8064C79.3431 29.9328 80.1013 30.6694 81.0977 31.2759L81.0761 31.4492H78.5199C78.1516 30.951 77.6967 30.2361 77.1335 29.3046L74.3607 24.9071H70.5481V29.6296C70.5481 30.4961 70.8297 30.9726 71.6096 31.2759L71.5879 31.4492H68.0352ZM70.5481 23.4774H75.0322C76.7003 23.4774 78 22.1993 78 20.5746C78 18.9716 76.7003 17.7152 75.0322 17.7152H70.5481V23.4774ZM85.2427 31.2759C86.0009 31.016 86.4125 30.5177 86.4125 29.4779V17.6935H84.1813C82.5999 17.6935 81.8417 18.2134 81.0835 19.0799L80.9102 19.0149L81.7334 16.2854H92.543L93.3662 19.0149L93.1929 19.0799C92.4347 18.2134 91.6765 17.6935 90.0952 17.6935H87.8639V29.4779C87.8639 30.5177 88.2755 31.016 89.0337 31.2759L89.012 31.4492H85.2644L85.2427 31.2759ZM104.658 31.6658C102.73 31.6658 101.863 30.9943 100.975 30.9943C100.737 30.9943 100.477 31.0376 100.238 31.1893L100.108 31.1459L99.2637 27.6366L99.437 27.5716C101.365 29.7595 103.315 30.2361 104.658 30.2361C106.802 30.2361 108.167 29.1097 108.167 27.485C108.167 25.7303 106.629 25.0371 105.069 24.6255L103.466 24.1923C101.603 23.6724 99.6319 22.6759 99.6319 20.1414C99.6319 17.6718 101.517 16.0688 104.376 16.0688C106.087 16.0688 106.997 16.697 107.647 16.697C107.82 16.697 107.95 16.6537 108.102 16.5237L108.232 16.5454L108.882 19.7298L108.709 19.7948C107.582 18.3001 106.022 17.4769 104.311 17.4769C102.448 17.4769 101.148 18.4517 101.148 20.0331C101.148 21.7227 102.621 22.221 104.268 22.6975L105.871 23.1525C108.015 23.7807 109.705 24.8638 109.705 27.3333C109.705 29.9762 107.734 31.6658 104.658 31.6658ZM114.69 31.2759C115.448 31.016 115.86 30.5177 115.86 29.4779V17.6935H113.629C112.047 17.6935 111.289 18.2134 110.531 19.0799L110.358 19.0149L111.181 16.2854H121.991L122.814 19.0149L122.64 19.0799C121.882 18.2134 121.124 17.6935 119.543 17.6935H117.311V29.4779C117.311 30.5177 117.723 31.016 118.481 31.2759L118.46 31.4492H114.712L114.69 31.2759ZM130.764 31.6658C127.363 31.6658 125.023 29.4346 125.023 26.1852V18.1051C125.023 17.2386 124.742 16.762 123.962 16.4587L123.984 16.2854H127.536L127.558 16.4587C126.778 16.762 126.497 17.2386 126.497 18.1051V26.1852C126.497 28.5898 128.23 30.2361 130.764 30.2361C133.299 30.2361 135.032 28.5898 135.032 26.1852V18.1051C135.032 17.2386 134.75 16.762 133.992 16.4587L134.013 16.2854H137.544L137.566 16.4587C136.786 16.762 136.505 17.2386 136.505 18.1051V26.1852C136.505 29.4346 134.165 31.6658 130.764 31.6658ZM139.962 31.4492L139.94 31.2759C140.72 30.9726 141.001 30.4961 141.001 29.6296V18.1051C141.001 17.2386 140.72 16.762 139.94 16.4587L139.962 16.2854H145.312C149.775 16.2854 153.241 19.5998 153.241 23.8673C153.241 28.1348 149.775 31.4492 145.312 31.4492H139.962ZM142.475 29.9978H145.139C148.843 29.9978 151.681 27.355 151.681 23.8673C151.681 20.3797 148.843 17.7368 145.139 17.7368H142.475V29.9978ZM155.257 31.4492L155.235 31.2759C156.015 30.9726 156.296 30.4961 156.296 29.6296V18.1051C156.296 17.2386 156.015 16.762 155.235 16.4587L155.257 16.2854H165.2L166.023 18.8633L165.871 18.9283C165.2 18.0834 164.203 17.6935 162.752 17.6935H157.769V22.5892H161.994C162.925 22.5892 163.51 22.2426 163.792 21.6144L163.943 21.6361V24.9505L163.792 24.9721C163.51 24.3439 162.925 23.9973 161.994 23.9973H157.769V30.0412H163.272C164.636 30.0412 165.633 29.5862 166.413 28.6331L166.543 28.6981L165.741 31.4492H155.257ZM168.331 31.4492L168.31 31.2759C169.09 30.9726 169.371 30.4961 169.371 29.6296V18.3867C169.371 17.4119 168.83 16.8053 168.201 16.5021L168.223 16.2854H170.476L179.704 28.6114V18.1051C179.704 17.2386 179.423 16.762 178.643 16.4587L178.664 16.2854H182.174L182.195 16.4587C181.415 16.762 181.134 17.2386 181.134 18.1051V31.4492H180.007L170.801 19.1449V29.6296C170.801 30.4961 171.082 30.9726 171.862 31.2759L171.841 31.4492H168.331ZM187.886 31.2759C188.644 31.016 189.056 30.5177 189.056 29.4779V17.6935H186.825C185.243 17.6935 184.485 18.2134 183.727 19.0799L183.553 19.0149L184.377 16.2854H195.186L196.009 19.0149L195.836 19.0799C195.078 18.2134 194.32 17.6935 192.738 17.6935H190.507V29.4779C190.507 30.5177 190.919 31.016 191.677 31.2759L191.655 31.4492H187.908L187.886 31.2759ZM202.097 31.6658C200.169 31.6658 199.302 30.9943 198.414 30.9943C198.176 30.9943 197.916 31.0376 197.678 31.1893L197.548 31.1459L196.703 27.6366L196.876 27.5716C198.804 29.7595 200.754 30.2361 202.097 30.2361C204.241 30.2361 205.606 29.1097 205.606 27.485C205.606 25.7303 204.068 25.0371 202.508 24.6255L200.905 24.1923C199.042 23.6724 197.071 22.6759 197.071 20.1414C197.071 17.6718 198.956 16.0688 201.815 16.0688C203.527 16.0688 204.436 16.697 205.086 16.697C205.26 16.697 205.389 16.6537 205.541 16.5237L205.671 16.5454L206.321 19.7298L206.148 19.7948C205.021 18.3001 203.462 17.4769 201.75 17.4769C199.887 17.4769 198.587 18.4517 198.587 20.0331C198.587 21.7227 200.06 22.221 201.707 22.6975L203.31 23.1525C205.454 23.7807 207.144 24.8638 207.144 27.3333C207.144 29.9762 205.173 31.6658 202.097 31.6658Z" fill="white"></path>
<path d="M53.5856 9.52203C53.9543 9.36134 54.1623 9.13447 54.2568 8.63348L55.117 3.76531H54.2946C53.614 3.76531 53.2075 3.98272 52.7822 4.35138L52.716 4.31357L53.2832 2.98073H58.0095L58.2269 4.31357L58.1324 4.35138C57.8394 3.98272 57.5274 3.76531 56.8374 3.76531H56.015L55.1548 8.63348C55.0603 9.13447 55.2021 9.36134 55.5329 9.52203L55.5045 9.59766H53.5762L53.5856 9.52203ZM58.509 9.52203C58.8399 9.38024 58.9817 9.16283 59.0668 8.71855L59.927 3.85984C60.0026 3.41556 59.927 3.19815 59.6434 3.05635L59.6717 2.98073H60.9384L60.428 5.82601C60.7966 5.32501 61.2692 5.0887 61.827 5.0887C62.7533 5.0887 63.4056 5.75984 63.2071 6.83745L62.8857 8.71855C62.8006 9.16283 62.8857 9.38024 63.1693 9.52203L63.1503 9.59766H61.4772V9.52203C61.7986 9.38024 61.9498 9.16283 62.0349 8.71855L62.3469 6.92253C62.4697 6.27029 62.1484 5.90163 61.5717 5.90163C61.0329 5.90163 60.5414 6.24193 60.2389 6.89417L59.9175 8.71855C59.8324 9.16283 59.927 9.38024 60.2105 9.52203L60.1727 9.59766H58.4996L58.509 9.52203ZM66.8913 9.68273C65.6436 9.68273 64.8685 8.86034 64.8685 7.6882C64.8685 6.28919 65.9366 5.06979 67.4112 5.06979C68.5739 5.06979 69.2451 5.82601 69.2451 6.86581C69.2451 7.14939 69.1978 7.44243 69.0938 7.74492H65.7192C65.7665 8.46333 66.2297 8.89815 67.0804 8.89815C67.4491 8.89815 68.054 8.81308 68.7535 8.3877L68.8103 8.42552L68.3282 9.54094C68.2714 9.53149 68.2147 9.52203 68.1391 9.52203C67.8366 9.52203 67.4396 9.68273 66.8913 9.68273ZM65.8137 7.02651H68.4038C68.4132 6.97924 68.4132 6.92253 68.4132 6.87526C68.4132 6.24193 67.9879 5.86382 67.3167 5.86382C66.5321 5.86382 66.0217 6.39317 65.8137 7.02651Z" fill="white"></path>
<path d="M51.6693 54.6035L51.6476 54.4302C52.4275 54.1269 52.7091 53.6504 52.7091 52.7839V41.2595C52.7091 40.393 52.4275 39.9164 51.6476 39.6132L51.6693 39.4399H55.2219L55.2436 39.6132C54.4637 39.9164 54.1821 40.393 54.1821 41.2595V53.1955H58.7529C60.1176 53.1955 61.1141 52.7622 61.8506 51.7874L62.0239 51.8524L61.2007 54.6035H51.6693ZM63.5582 54.6035L63.5365 54.4302C64.3164 54.1269 64.598 53.6504 64.598 52.7839V41.2595C64.598 40.393 64.3164 39.9164 63.5365 39.6132L63.5582 39.4399H73.5012L74.3244 42.0177L74.1727 42.0827C73.5012 41.2378 72.5047 40.8479 71.0534 40.8479H66.071V45.7436H70.2952C71.2267 45.7436 71.8115 45.397 72.0931 44.7688L72.2448 44.7905V48.1048L72.0931 48.1265C71.8115 47.4983 71.2267 47.1517 70.2952 47.1517H66.071V53.1955H71.5733C72.938 53.1955 73.9344 52.7406 74.7143 51.7874L74.8443 51.8524L74.0428 54.6035H63.5582ZM75.6509 54.6035L75.6292 54.4302C76.344 54.1269 76.7123 53.672 77.0372 52.8705L81.673 41.4545C82.0629 40.5013 81.6946 39.9598 80.9148 39.6565L80.9365 39.4399H83.6659L89.0598 52.8705C89.3848 53.672 89.7747 54.1269 90.4679 54.4302L90.4462 54.6035H86.7636L86.742 54.4302C87.6085 54.1053 87.8034 53.672 87.4785 52.8705L86.4604 50.336H79.5717L78.5753 52.8489C78.272 53.672 78.4453 54.1053 79.3118 54.4302L79.2901 54.6035H75.6509ZM80.135 48.9063H85.8971L83.0161 41.6928L80.135 48.9063ZM98.374 54.8201C94.0632 54.8201 90.6838 51.4191 90.6838 47.0217C90.6838 42.6676 94.0848 39.2232 98.3307 39.2232C100.757 39.2232 101.602 40.2197 102.447 39.5265L102.533 39.5482L103.486 43.0142L103.335 43.0575C101.797 41.2812 100.389 40.6746 98.3307 40.6746C94.908 40.6746 92.2219 43.4474 92.2219 47.0217C92.2219 50.531 95.0163 53.3471 98.374 53.3471C100.367 53.3471 101.732 52.6972 102.447 52.0474V47.5416H100.41C98.9372 47.5416 98.2873 47.7149 97.4208 48.3648L97.2909 48.2781L98.0707 46.1552H104.483L104.504 46.3285C104.071 46.6101 103.941 47.13 103.941 47.9965V51.6358C103.941 52.1557 103.92 52.3723 104.136 52.6322L104.115 52.7622C103.226 53.3254 101.58 54.8201 98.374 54.8201ZM113.149 54.8201C109.748 54.8201 107.409 52.5889 107.409 49.3396V41.2595C107.409 40.393 107.127 39.9164 106.347 39.6132L106.369 39.4399H109.922L109.943 39.6132C109.164 39.9164 108.882 40.393 108.882 41.2595V49.3396C108.882 51.7441 110.615 53.3904 113.149 53.3904C115.684 53.3904 117.417 51.7441 117.417 49.3396V41.2595C117.417 40.393 117.135 39.9164 116.377 39.6132L116.399 39.4399H119.93L119.951 39.6132C119.172 39.9164 118.89 40.393 118.89 41.2595V49.3396C118.89 52.5889 116.55 54.8201 113.149 54.8201ZM122.347 54.6035L122.325 54.4302C123.105 54.1269 123.387 53.6504 123.387 52.7839V41.2595C123.387 40.393 123.105 39.9164 122.325 39.6132L122.347 39.4399H132.29L133.113 42.0177L132.961 42.0827C132.29 41.2378 131.293 40.8479 129.842 40.8479H124.86V45.7436H129.084C130.015 45.7436 130.6 45.397 130.882 44.7688L131.034 44.7905V48.1048L130.882 48.1265C130.6 47.4983 130.015 47.1517 129.084 47.1517H124.86V53.1955H130.362C131.727 53.1955 132.723 52.7406 133.503 51.7874L133.633 51.8524L132.832 54.6035H122.347Z" fill="white"></path>
</svg>