<svg xmlns="http://www.w3.org/2000/svg" viewBox="54 8 210 33"><path fill="#000000" d="M70.224 18.968L67.632 19.784C67.464 18.728 66.576 17.168 64.296 17.168C62.568 17.168 61.368 18.32 61.368 19.616C61.368 20.696 62.04 21.512 63.36 21.8L65.808 22.304C68.808 22.904 70.416 24.8 70.416 27.2C70.416 29.84 68.28 32.36 64.392 32.36C60.072 32.36 58.08 29.576 57.816 27.128L60.504 26.36C60.672 28.136 61.944 29.768 64.392 29.768C66.432 29.768 67.488 28.736 67.488 27.416C67.488 26.312 66.672 25.424 65.208 25.112L62.808 24.608C60.216 24.08 58.488 22.376 58.488 19.832C58.488 16.976 61.104 14.624 64.272 14.624C68.28 14.624 69.84 17.072 70.224 18.968ZM75.2775 24.872H81.0135C80.9655 23.504 80.0535 22.28 78.1335 22.28C76.3815 22.28 75.3735 23.624 75.2775 24.872ZM81.3255 27.92L83.6775 28.664C83.0535 30.704 81.2055 32.36 78.3975 32.36C75.2295 32.36 72.4215 30.056 72.4215 26.096C72.4215 22.4 75.1575 19.952 78.1095 19.952C81.7095 19.952 83.8215 22.328 83.8215 26.024C83.8215 26.48 83.7735 26.864 83.7495 26.912H75.2055C75.2775 28.688 76.6695 29.96 78.3975 29.96C80.0775 29.96 80.9415 29.072 81.3255 27.92ZM85.8049 28.832C85.8049 26.744 87.3409 25.592 89.3329 25.304L92.3329 24.848C93.0049 24.752 93.1969 24.416 93.1969 24.008C93.1969 23.024 92.5249 22.232 90.9889 22.232C89.5249 22.232 88.7089 23.168 88.5889 24.344L86.0449 23.768C86.2609 21.752 88.0849 19.952 90.9649 19.952C94.5649 19.952 95.9329 21.992 95.9329 24.32V30.128C95.9329 31.184 96.0529 31.88 96.0769 32H93.4849C93.4609 31.928 93.3649 31.448 93.3649 30.512C92.8129 31.4 91.6609 32.36 89.7649 32.36C87.3169 32.36 85.8049 30.68 85.8049 28.832ZM90.2929 30.176C91.8529 30.176 93.1969 29.432 93.1969 27.152V26.624L90.1489 27.08C89.2849 27.224 88.5889 27.704 88.5889 28.664C88.5889 29.456 89.1889 30.176 90.2929 30.176ZM102.082 25.256V32H99.2983V20.312H102.01V21.872C102.778 20.528 104.17 19.976 105.466 19.976C108.322 19.976 109.69 22.04 109.69 24.608V32H106.906V25.088C106.906 23.648 106.258 22.496 104.506 22.496C102.922 22.496 102.082 23.72 102.082 25.256ZM130.341 18.968L127.749 19.784C127.581 18.728 126.693 17.168 124.413 17.168C122.685 17.168 121.485 18.32 121.485 19.616C121.485 20.696 122.157 21.512 123.477 21.8L125.925 22.304C128.925 22.904 130.533 24.8 130.533 27.2C130.533 29.84 128.397 32.36 124.509 32.36C120.189 32.36 118.197 29.576 117.933 27.128L120.621 26.36C120.789 28.136 122.061 29.768 124.509 29.768C126.549 29.768 127.605 28.736 127.605 27.416C127.605 26.312 126.789 25.424 125.325 25.112L122.925 24.608C120.333 24.08 118.605 22.376 118.605 19.832C118.605 16.976 121.221 14.624 124.389 14.624C128.397 14.624 129.957 17.072 130.341 18.968ZM138.587 29.864C140.315 29.864 141.851 28.592 141.851 26.144C141.851 23.72 140.315 22.472 138.587 22.472C136.883 22.472 135.323 23.72 135.323 26.144C135.323 28.568 136.883 29.864 138.587 29.864ZM138.587 19.952C142.091 19.952 144.659 22.568 144.659 26.144C144.659 29.744 142.091 32.36 138.587 32.36C135.107 32.36 132.539 29.744 132.539 26.144C132.539 22.568 135.107 19.952 138.587 19.952ZM152.673 29.864C154.401 29.864 155.937 28.592 155.937 26.144C155.937 23.72 154.401 22.472 152.673 22.472C150.969 22.472 149.409 23.72 149.409 26.144C149.409 28.568 150.969 29.864 152.673 29.864ZM152.673 19.952C156.177 19.952 158.745 22.568 158.745 26.144C158.745 29.744 156.177 32.36 152.673 32.36C149.193 32.36 146.625 29.744 146.625 26.144C146.625 22.568 149.193 19.952 152.673 19.952ZM164.239 25.256V32H161.455V20.312H164.167V21.872C164.935 20.528 166.327 19.976 167.623 19.976C170.479 19.976 171.847 22.04 171.847 24.608V32H169.063V25.088C169.063 23.648 168.415 22.496 166.663 22.496C165.079 22.496 164.239 23.72 164.239 25.256ZM177.973 25.136V32H175.189V14.624H177.973V21.44C178.765 20.408 180.085 19.976 181.309 19.976C184.189 19.976 185.581 22.04 185.581 24.608V32H182.797V25.088C182.797 23.648 182.149 22.496 180.397 22.496C178.861 22.496 178.021 23.648 177.973 25.136ZM194.227 29.864C195.955 29.864 197.491 28.592 197.491 26.144C197.491 23.72 195.955 22.472 194.227 22.472C192.523 22.472 190.963 23.72 190.963 26.144C190.963 28.568 192.523 29.864 194.227 29.864ZM194.227 19.952C197.731 19.952 200.299 22.568 200.299 26.144C200.299 29.744 197.731 32.36 194.227 32.36C190.747 32.36 188.179 29.744 188.179 26.144C188.179 22.568 190.747 19.952 194.227 19.952ZM216.742 32.36C212.158 32.36 208.15 29.048 208.15 23.504C208.15 17.96 212.302 14.624 216.718 14.624C221.038 14.624 223.606 17.168 224.374 20.144L221.662 21.056C221.158 18.992 219.574 17.336 216.718 17.336C213.91 17.336 211.102 19.376 211.102 23.504C211.102 27.488 213.838 29.6 216.742 29.6C219.598 29.6 221.23 27.776 221.806 25.856L224.446 26.72C223.678 29.6 221.086 32.36 216.742 32.36ZM229.629 25.136V32H226.845V14.624H229.629V21.44C230.421 20.408 231.741 19.976 232.965 19.976C235.845 19.976 237.237 22.04 237.237 24.608V32H234.453V25.088C234.453 23.648 233.805 22.496 232.053 22.496C230.517 22.496 229.677 23.648 229.629 25.136ZM245.884 29.864C247.612 29.864 249.148 28.592 249.148 26.144C249.148 23.72 247.612 22.472 245.884 22.472C244.18 22.472 242.62 23.72 242.62 26.144C242.62 28.568 244.18 29.864 245.884 29.864ZM245.884 19.952C249.388 19.952 251.956 22.568 251.956 26.144C251.956 29.744 249.388 32.36 245.884 32.36C242.404 32.36 239.836 29.744 239.836 26.144C239.836 22.568 242.404 19.952 245.884 19.952ZM256.778 24.872H262.514C262.466 23.504 261.554 22.28 259.634 22.28C257.882 22.28 256.874 23.624 256.778 24.872ZM262.826 27.92L265.178 28.664C264.554 30.704 262.706 32.36 259.898 32.36C256.73 32.36 253.922 30.056 253.922 26.096C253.922 22.4 256.658 19.952 259.61 19.952C263.21 19.952 265.322 22.328 265.322 26.024C265.322 26.48 265.273 26.864 265.25 26.912H256.706C256.778 28.688 258.17 29.96 259.898 29.96C261.578 29.96 262.442 29.072 262.826 27.92Z"></path></svg>